{"asset":{"version":"2.0","generator":"Blockbench 4.9.4 glTF exporter"},"scenes":[{"nodes":[4],"name":"blockbench_export"}],"scene":0,"nodes":[{"rotation":[0.6988771263155323,0.10756747795195008,-0.1075674779519501,0.6988771263155324],"name":"cylinder","mesh":0},{"rotation":[-0.1881639803414801,-0.643894311503236,0.6777486120683018,0.3010834617764907],"translation":[0.1875,0,0.6875],"name":"cylinder","mesh":1},{"rotation":[0.22555861543339428,-0.6847551432601702,0.6881298791881777,-0.08192053558771474],"translation":[0,0,0.6875],"name":"cylinder","mesh":2},{"translation":[-0.0625,0.0625,-0.25],"name":"bone","children":[0,1,2]},{"children":[3]}],"bufferViews":[{"buffer":0,"byteOffset":0,"byteLength":1548,"target":34962,"byteStride":12},{"buffer":0,"byteOffset":1548,"byteLength":1548,"target":34962,"byteStride":12},{"buffer":0,"byteOffset":3096,"byteLength":1032,"target":34962,"byteStride":8},{"buffer":0,"byteOffset":4128,"byteLength":108,"target":34963},{"buffer":0,"byteOffset":4236,"byteLength":108,"target":34963},{"buffer":0,"byteOffset":4344,"byteLength":116,"target":34963},{"buffer":0,"byteOffset":4460,"byteLength":1548,"target":34962,"byteStride":12},{"buffer":0,"byteOffset":6008,"byteLength":1548,"target":34962,"byteStride":12},{"buffer":0,"byteOffset":7556,"byteLength":1032,"target":34962,"byteStride":8},{"buffer":0,"byteOffset":8588,"byteLength":108,"target":34963},{"buffer":0,"byteOffset":8696,"byteLength":108,"target":34963},{"buffer":0,"byteOffset":8804,"byteLength":116,"target":34963},{"buffer":0,"byteOffset":8920,"byteLength":1548,"target":34962,"byteStride":12},{"buffer":0,"byteOffset":10468,"byteLength":1548,"target":34962,"byteStride":12},{"buffer":0,"byteOffset":12016,"byteLength":1032,"target":34962,"byteStride":8},{"buffer":0,"byteOffset":13048,"byteLength":108,"target":34963},{"buffer":0,"byteOffset":13156,"byteLength":108,"target":34963},{"buffer":0,"byteOffset":13264,"byteLength":116,"target":34963}],"buffers":[{"byteLength":13380,"uri":"data:application/octet-stream;base64,"}],"accessors":[{"bufferView":0,"componentType":5126,"count":129,"max":[0.1308489590883255,0.5363070368766785,0.03125],"min":[-0.13455694913864136,0.03125,-0.03125],"type":"VEC3"},{"bufferView":1,"componentType":5126,"count":129,"max":[0.8660253882408142,0.9537169337272644,1],"min":[-0.8659780621528625,-1,-1],"type":"VEC3"},{"bufferView":2,"componentType":5126,"count":129,"max":[0.5625,0.9375],"min":[0,0],"type":"VEC2"},{"bufferView":3,"componentType":5123,"count":54,"max":[41],"min":[0],"type":"SCALAR"},{"bufferView":4,"componentType":5123,"count":54,"max":[83],"min":[42],"type":"SCALAR"},{"bufferView":5,"componentType":5123,"count":57,"max":[128],"min":[84],"type":"SCALAR"},{"bufferView":6,"componentType":5126,"count":129,"max":[0.0995989590883255,0.47380703687667847,0.03125],"min":[-0.10330694168806076,0.09375,-0.03125],"type":"VEC3"},{"bufferView":7,"componentType":5126,"count":129,"max":[0.9148452877998352,0.9550637602806091,1],"min":[-0.9147877097129822,-1,-1],"type":"VEC3"},{"bufferView":8,"componentType":5126,"count":129,"max":[0.5625,0.9375],"min":[0,0],"type":"VEC2"},{"bufferView":9,"componentType":5123,"count":54,"max":[41],"min":[0],"type":"SCALAR"},{"bufferView":10,"componentType":5123,"count":54,"max":[83],"min":[42],"type":"SCALAR"},{"bufferView":11,"componentType":5123,"count":57,"max":[128],"min":[84],"type":"SCALAR"},{"bufferView":12,"componentType":5126,"count":129,"max":[0.1308489590883255,0.5363070368766785,0.03125],"min":[-0.13455694913864136,0.03125,-0.03125],"type":"VEC3"},{"bufferView":13,"componentType":5126,"count":129,"max":[0.8660253882408142,0.9537169337272644,1],"min":[-0.8659780621528625,-1,-1],"type":"VEC3"},{"bufferView":14,"componentType":5126,"count":129,"max":[0.5625,0.9375],"min":[0,0],"type":"VEC2"},{"bufferView":15,"componentType":5123,"count":54,"max":[41],"min":[0],"type":"SCALAR"},{"bufferView":16,"componentType":5123,"count":54,"max":[83],"min":[42],"type":"SCALAR"},{"bufferView":17,"componentType":5123,"count":57,"max":[128],"min":[84],"type":"SCALAR"}],"materials":[{"pbrMetallicRoughness":{"metallicFactor":0,"roughnessFactor":1,"baseColorTexture":{"index":0}},"alphaMode":"MASK","alphaCutoff":0.05,"doubleSided":true},{"pbrMetallicRoughness":{"metallicFactor":0,"roughnessFactor":1,"baseColorTexture":{"index":1}},"alphaMode":"MASK","alphaCutoff":0.05,"doubleSided":true}],"textures":[{"sampler":0,"source":0},{"sampler":1,"source":1}],"samplers":[{"magFilter":9728,"minFilter":9728,"wrapS":33071,"wrapT":33071},{"magFilter":9728,"minFilter":9728,"wrapS":33071,"wrapT":33071}],"images":[{"mimeType":"image/png","uri":"data:image/png;base64,"},{"mimeType":"image/png","uri":"data:image/png;base64,"}],"meshes":[{"primitives":[{"mode":4,"attributes":{"POSITION":0,"NORMAL":1,"TEXCOORD_0":2},"indices":3,"material":0},{"mode":4,"attributes":{"POSITION":0,"NORMAL":1,"TEXCOORD_0":2},"indices":4,"material":1},{"mode":4,"attributes":{"POSITION":0,"NORMAL":1,"TEXCOORD_0":2},"indices":5,"material":0}]},{"primitives":[{"mode":4,"attributes":{"POSITION":6,"NORMAL":7,"TEXCOORD_0":8},"indices":9,"material":0},{"mode":4,"attributes":{"POSITION":6,"NORMAL":7,"TEXCOORD_0":8},"indices":10,"material":1},{"mode":4,"attributes":{"POSITION":6,"NORMAL":7,"TEXCOORD_0":8},"indices":11,"material":0}]},{"primitives":[{"mode":4,"attributes":{"POSITION":12,"NORMAL":13,"TEXCOORD_0":14},"indices":15,"material":0},{"mode":4,"attributes":{"POSITION":12,"NORMAL":13,"TEXCOORD_0":14},"indices":16,"material":1},{"mode":4,"attributes":{"POSITION":12,"NORMAL":13,"TEXCOORD_0":14},"indices":17,"material":0}]}]}