{"asset":{"version":"2.0","generator":"Blockbench 4.9.4 glTF exporter"},"scenes":[{"nodes":[2],"name":"blockbench_export"}],"scene":0,"nodes":[{"rotation":[0.6988771263155323,0.10756747795195008,-0.1075674779519501,0.6988771263155324],"name":"cylinder","mesh":0},{"translation":[-0.0625,0.0625,-0.25],"name":"bone","children":[0]},{"children":[1]}],"bufferViews":[{"buffer":0,"byteOffset":0,"byteLength":1548,"target":34962,"byteStride":12},{"buffer":0,"byteOffset":1548,"byteLength":1548,"target":34962,"byteStride":12},{"buffer":0,"byteOffset":3096,"byteLength":1032,"target":34962,"byteStride":8},{"buffer":0,"byteOffset":4128,"byteLength":108,"target":34963},{"buffer":0,"byteOffset":4236,"byteLength":108,"target":34963},{"buffer":0,"byteOffset":4344,"byteLength":116,"target":34963}],"buffers":[{"byteLength":4460,"uri":"data:application/octet-stream;base64,"}],"accessors":[{"bufferView":0,"componentType":5126,"count":129,"max":[0.1308489590883255,0.5363070368766785,0.03125],"min":[-0.13455694913864136,0.03125,-0.03125],"type":"VEC3"},{"bufferView":1,"componentType":5126,"count":129,"max":[0.8660253882408142,0.9537169337272644,1],"min":[-0.8659780621528625,-1,-1],"type":"VEC3"},{"bufferView":2,"componentType":5126,"count":129,"max":[0.5625,0.9375],"min":[0,0],"type":"VEC2"},{"bufferView":3,"componentType":5123,"count":54,"max":[41],"min":[0],"type":"SCALAR"},{"bufferView":4,"componentType":5123,"count":54,"max":[83],"min":[42],"type":"SCALAR"},{"bufferView":5,"componentType":5123,"count":57,"max":[128],"min":[84],"type":"SCALAR"}],"materials":[{"pbrMetallicRoughness":{"metallicFactor":0,"roughnessFactor":1,"baseColorTexture":{"index":0}},"alphaMode":"MASK","alphaCutoff":0.05,"doubleSided":true},{"pbrMetallicRoughness":{"metallicFactor":0,"roughnessFactor":1,"baseColorTexture":{"index":1}},"alphaMode":"MASK","alphaCutoff":0.05,"doubleSided":true}],"textures":[{"sampler":0,"source":0},{"sampler":1,"source":1}],"samplers":[{"magFilter":9728,"minFilter":9728,"wrapS":33071,"wrapT":33071},{"magFilter":9728,"minFilter":9728,"wrapS":33071,"wrapT":33071}],"images":[{"mimeType":"image/png","uri":"data:image/png;base64,"},{"mimeType":"image/png","uri":"data:image/png;base64,"}],"meshes":[{"primitives":[{"mode":4,"attributes":{"POSITION":0,"NORMAL":1,"TEXCOORD_0":2},"indices":3,"material":0},{"mode":4,"attributes":{"POSITION":0,"NORMAL":1,"TEXCOORD_0":2},"indices":4,"material":1},{"mode":4,"attributes":{"POSITION":0,"NORMAL":1,"TEXCOORD_0":2},"indices":5,"material":0}]}]}