{"asset":{"version":"2.0","generator":"Blockbench 4.9.4 glTF exporter"},"scenes":[{"nodes":[4],"name":"blockbench_export"}],"scene":0,"nodes":[{"translation":[-0.18749995405214767,-0.75,-0.6874999204159852],"name":"top","mesh":0},{"translation":[-0.18749995405214767,-0.75,-0.6874999204159852],"name":"cylinder","mesh":1},{"translation":[-0.18749995405214767,-0.75,-0.6874999204159852],"name":"cylinder_selection","mesh":2},{"translation":[-4.594785233772806e-8,0.75,-7.958401478565709e-8],"name":"cylinder","children":[0,1,2]},{"children":[3]}],"bufferViews":[{"buffer":0,"byteOffset":0,"byteLength":1008,"target":34962,"byteStride":12},{"buffer":0,"byteOffset":1008,"byteLength":1008,"target":34962,"byteStride":12},{"buffer":0,"byteOffset":2016,"byteLength":672,"target":34962,"byteStride":8},{"buffer":0,"byteOffset":2688,"byteLength":216,"target":34963},{"buffer":0,"byteOffset":2904,"byteLength":6912,"target":34962,"byteStride":12},{"buffer":0,"byteOffset":9816,"byteLength":6912,"target":34962,"byteStride":12},{"buffer":0,"byteOffset":16728,"byteLength":4608,"target":34962,"byteStride":8},{"buffer":0,"byteOffset":21336,"byteLength":1728,"target":34963},{"buffer":0,"byteOffset":23064,"byteLength":1008,"target":34962,"byteStride":12},{"buffer":0,"byteOffset":24072,"byteLength":1008,"target":34962,"byteStride":12},{"buffer":0,"byteOffset":25080,"byteLength":672,"target":34962,"byteStride":8},{"buffer":0,"byteOffset":25752,"byteLength":216,"target":34963}],"buffers":[{"byteLength":25968,"uri":"data:application/octet-stream;base64,"}],"accessors":[{"bufferView":0,"componentType":5126,"count":84,"max":[0.5625,1.5,1.0625],"min":[-0.1875,1.5,0.3125],"type":"VEC3"},{"bufferView":1,"componentType":5126,"count":84,"max":[0,1,0],"min":[0,1,0],"type":"VEC3"},{"bufferView":2,"componentType":5126,"count":84,"max":[0.9375,0.375],"min":[0.75,0],"type":"VEC2"},{"bufferView":3,"componentType":5123,"count":108,"max":[83],"min":[0],"type":"SCALAR"},{"bufferView":4,"componentType":5126,"count":576,"max":[0.5625,1.5,1.0625],"min":[-0.1875,0,0.3125],"type":"VEC3"},{"bufferView":5,"componentType":5126,"count":576,"max":[1,0,1],"min":[-1,0,-1],"type":"VEC3"},{"bufferView":6,"componentType":5126,"count":576,"max":[0.75,0.75],"min":[0,0],"type":"VEC2"},{"bufferView":7,"componentType":5123,"count":864,"max":[575],"min":[0],"type":"SCALAR"},{"bufferView":8,"componentType":5126,"count":84,"max":[0.5625,0,1.0625],"min":[-0.1875,0,0.3125],"type":"VEC3"},{"bufferView":9,"componentType":5126,"count":84,"max":[0,-1,0],"min":[0,-1,0],"type":"VEC3"},{"bufferView":10,"componentType":5126,"count":84,"max":[0.9375,0.75],"min":[0.75,0.375],"type":"VEC2"},{"bufferView":11,"componentType":5123,"count":108,"max":[83],"min":[0],"type":"SCALAR"}],"materials":[{"pbrMetallicRoughness":{"metallicFactor":0,"roughnessFactor":1,"baseColorTexture":{"index":0}},"alphaMode":"MASK","alphaCutoff":0.05,"doubleSided":true}],"textures":[{"sampler":0,"source":0}],"samplers":[{"magFilter":9728,"minFilter":9728,"wrapS":33071,"wrapT":33071}],"images":[{"mimeType":"image/png","uri":"data:image/png;base64,"}],"meshes":[{"primitives":[{"mode":4,"attributes":{"POSITION":0,"NORMAL":1,"TEXCOORD_0":2},"indices":3,"material":0}]},{"primitives":[{"mode":4,"attributes":{"POSITION":4,"NORMAL":5,"TEXCOORD_0":6},"indices":7,"material":0}]},{"primitives":[{"mode":4,"attributes":{"POSITION":8,"NORMAL":9,"TEXCOORD_0":10},"indices":11,"material":0}]}]}