{"asset":{"version":"2.0","generator":"Blockbench 4.9.4 glTF exporter"},"scenes":[{"nodes":[1],"name":"blockbench_export"}],"scene":0,"nodes":[{"name":"cuboid","mesh":0},{"children":[0]}],"bufferViews":[{"buffer":0,"byteOffset":0,"byteLength":18048,"target":34962,"byteStride":12},{"buffer":0,"byteOffset":18048,"byteLength":18048,"target":34962,"byteStride":12},{"buffer":0,"byteOffset":36096,"byteLength":12032,"target":34962,"byteStride":8},{"buffer":0,"byteOffset":48128,"byteLength":4128,"target":34963}],"buffers":[{"byteLength":52256,"uri":"data:application/octet-stream;base64,"}],"accessors":[{"bufferView":0,"componentType":5126,"count":1504,"max":[0.3189105689525604,0.65625,0.4973025918006897],"min":[-0.3125,-0.0625,-0.625],"type":"VEC3"},{"bufferView":1,"componentType":5126,"count":1504,"max":[1,1,1],"min":[-1,-1,-1],"type":"VEC3"},{"bufferView":2,"componentType":5126,"count":1504,"max":[0.66796875,0.59375],"min":[0.0006750000175088644,0],"type":"VEC2"},{"bufferView":3,"componentType":5123,"count":2064,"max":[1503],"min":[0],"type":"SCALAR"}],"materials":[{"pbrMetallicRoughness":{"metallicFactor":0,"roughnessFactor":1,"baseColorTexture":{"index":0}},"alphaMode":"MASK","alphaCutoff":0.05,"doubleSided":true}],"textures":[{"sampler":0,"source":0}],"samplers":[{"magFilter":9728,"minFilter":9728,"wrapS":33071,"wrapT":33071}],"images":[{"mimeType":"image/png","uri":"data:image/png;base64,"}],"meshes":[{"primitives":[{"mode":4,"attributes":{"POSITION":0,"NORMAL":1,"TEXCOORD_0":2},"indices":3,"material":0}]}]}